<svg xmlns="http://www.w3.org/2000/svg" viewBox="0 0 512 512">
  <rect width="512" height="512" rx="96" fill="#09090b"/>
  <path d="M96 326h42l40-122c7-22 27-36 50-36h88c24 0 45 16 51 40l28 118h21c18 0 32 14 32 32s-14 32-32 32H96c-18 0-32-14-32-32s14-32 32-32Z" fill="#10b981"/>
  <path d="M183 326h142l-22-91h-76l-30 91Z" fill="#ecfeff"/>
  <path d="M142 390a42 42 0 1 0 0-84 42 42 0 0 0 0 84Zm228 0a42 42 0 1 0 0-84 42 42 0 0 0 0 84Z" fill="#f8fafc"/>
  <path d="M142 365a17 17 0 1 0 0-34 17 17 0 0 0 0 34Zm228 0a17 17 0 1 0 0-34 17 17 0 0 0 0 34Z" fill="#09090b"/>
  <path d="M142 130h94c13 0 24 11 24 24v28h-49c-25 0-47 16-56 39l-15 41H96V176c0-25 21-46 46-46Z" fill="#34d399"/>
  <path d="M302 113h48c16 0 30 11 35 26l18 57h-54l-47-83Z" fill="#facc15"/>
</svg>
